<svg width="105" height="73" viewBox="0 0 105 73" fill="none" xmlns="http://www.w3.org/2000/svg">
<mask id="path-1-outside-1_73_3" maskUnits="userSpaceOnUse" x="39" y="26" width="66" height="25" fill="black">
<rect fill="white" x="39" y="26" width="66" height="25"/>
<path d="M40.312 27.6H49.624V30.8H43.832V37.04H48.376V40.24H43.832V50H40.312V27.6ZM53.232 27.6H56.752V46.8H62.544V50H53.232V27.6ZM66.152 27.6H75.752V30.8H69.672V36.72H74.504V39.92H69.672V46.8H75.752V50H66.152V27.6ZM79.697 27.6H89.297V30.8H83.217V36.72H88.049V39.92H83.217V46.8H89.297V50H79.697V27.6ZM95.994 30.8H92.314V27.6H103.194V30.8H99.514V50H95.994V30.8Z"/>
</mask>
<path d="M40.312 27.6H49.624V30.8H43.832V37.04H48.376V40.24H43.832V50H40.312V27.6ZM53.232 27.6H56.752V46.8H62.544V50H53.232V27.6ZM66.152 27.6H75.752V30.8H69.672V36.72H74.504V39.92H69.672V46.8H75.752V50H66.152V27.6ZM79.697 27.6H89.297V30.8H83.217V36.72H88.049V39.92H83.217V46.8H89.297V50H79.697V27.6ZM95.994 30.8H92.314V27.6H103.194V30.8H99.514V50H95.994V30.8Z" fill="#2471E7"/>
<path d="M40.312 27.6V26.6H39.312V27.6H40.312ZM49.624 27.6H50.624V26.6H49.624V27.6ZM49.624 30.8V31.8H50.624V30.8H49.624ZM43.832 30.8V29.8H42.832V30.8H43.832ZM43.832 37.04H42.832V38.04H43.832V37.04ZM48.376 37.04H49.376V36.04H48.376V37.04ZM48.376 40.24V41.24H49.376V40.24H48.376ZM43.832 40.24V39.24H42.832V40.24H43.832ZM43.832 50V51H44.832V50H43.832ZM40.312 50H39.312V51H40.312V50ZM40.312 27.6V28.6H49.624V27.6V26.6H40.312V27.6ZM49.624 27.6H48.624V30.8H49.624H50.624V27.6H49.624ZM49.624 30.8V29.8H43.832V30.8V31.8H49.624V30.8ZM43.832 30.8H42.832V37.04H43.832H44.832V30.8H43.832ZM43.832 37.04V38.04H48.376V37.04V36.04H43.832V37.04ZM48.376 37.04H47.376V40.24H48.376H49.376V37.04H48.376ZM48.376 40.24V39.24H43.832V40.24V41.24H48.376V40.24ZM43.832 40.24H42.832V50H43.832H44.832V40.24H43.832ZM43.832 50V49H40.312V50V51H43.832V50ZM40.312 50H41.312V27.6H40.312H39.312V50H40.312ZM53.232 27.6V26.6H52.232V27.6H53.232ZM56.752 27.6H57.752V26.6H56.752V27.6ZM56.752 46.8H55.752V47.8H56.752V46.8ZM62.544 46.8H63.544V45.8H62.544V46.8ZM62.544 50V51H63.544V50H62.544ZM53.232 50H52.232V51H53.232V50ZM53.232 27.6V28.6H56.752V27.6V26.6H53.232V27.6ZM56.752 27.6H55.752V46.8H56.752H57.752V27.6H56.752ZM56.752 46.8V47.8H62.544V46.8V45.8H56.752V46.8ZM62.544 46.8H61.544V50H62.544H63.544V46.8H62.544ZM62.544 50V49H53.232V50V51H62.544V50ZM53.232 50H54.232V27.6H53.232H52.232V50H53.232ZM66.152 27.6V26.6H65.152V27.6H66.152ZM75.752 27.6H76.752V26.6H75.752V27.6ZM75.752 30.8V31.8H76.752V30.8H75.752ZM69.672 30.8V29.8H68.672V30.8H69.672ZM69.672 36.72H68.672V37.72H69.672V36.72ZM74.504 36.72H75.504V35.72H74.504V36.72ZM74.504 39.92V40.92H75.504V39.92H74.504ZM69.672 39.92V38.92H68.672V39.92H69.672ZM69.672 46.8H68.672V47.8H69.672V46.8ZM75.752 46.8H76.752V45.8H75.752V46.8ZM75.752 50V51H76.752V50H75.752ZM66.152 50H65.152V51H66.152V50ZM66.152 27.6V28.6H75.752V27.6V26.6H66.152V27.6ZM75.752 27.6H74.752V30.8H75.752H76.752V27.6H75.752ZM75.752 30.8V29.8H69.672V30.8V31.8H75.752V30.8ZM69.672 30.8H68.672V36.72H69.672H70.672V30.8H69.672ZM69.672 36.72V37.72H74.504V36.72V35.72H69.672V36.72ZM74.504 36.72H73.504V39.92H74.504H75.504V36.72H74.504ZM74.504 39.92V38.92H69.672V39.92V40.92H74.504V39.92ZM69.672 39.92H68.672V46.8H69.672H70.672V39.92H69.672ZM69.672 46.8V47.8H75.752V46.8V45.8H69.672V46.8ZM75.752 46.8H74.752V50H75.752H76.752V46.8H75.752ZM75.752 50V49H66.152V50V51H75.752V50ZM66.152 50H67.152V27.6H66.152H65.152V50H66.152ZM79.697 27.6V26.6H78.697V27.6H79.697ZM89.297 27.6H90.297V26.6H89.297V27.6ZM89.297 30.8V31.8H90.297V30.8H89.297ZM83.217 30.8V29.8H82.217V30.8H83.217ZM83.217 36.72H82.217V37.72H83.217V36.72ZM88.049 36.72H89.049V35.72H88.049V36.72ZM88.049 39.92V40.92H89.049V39.92H88.049ZM83.217 39.92V38.92H82.217V39.92H83.217ZM83.217 46.8H82.217V47.8H83.217V46.8ZM89.297 46.8H90.297V45.8H89.297V46.8ZM89.297 50V51H90.297V50H89.297ZM79.697 50H78.697V51H79.697V50ZM79.697 27.6V28.6H89.297V27.6V26.6H79.697V27.6ZM89.297 27.6H88.297V30.8H89.297H90.297V27.6H89.297ZM89.297 30.8V29.8H83.217V30.8V31.8H89.297V30.8ZM83.217 30.8H82.217V36.72H83.217H84.217V30.8H83.217ZM83.217 36.72V37.72H88.049V36.72V35.72H83.217V36.72ZM88.049 36.72H87.049V39.92H88.049H89.049V36.72H88.049ZM88.049 39.92V38.92H83.217V39.92V40.92H88.049V39.92ZM83.217 39.92H82.217V46.8H83.217H84.217V39.92H83.217ZM83.217 46.8V47.8H89.297V46.8V45.8H83.217V46.8ZM89.297 46.8H88.297V50H89.297H90.297V46.8H89.297ZM89.297 50V49H79.697V50V51H89.297V50ZM79.697 50H80.697V27.6H79.697H78.697V50H79.697ZM95.994 30.8H96.994V29.8H95.994V30.8ZM92.314 30.8H91.314V31.8H92.314V30.8ZM92.314 27.6V26.6H91.314V27.6H92.314ZM103.194 27.6H104.194V26.6H103.194V27.6ZM103.194 30.8V31.8H104.194V30.8H103.194ZM99.514 30.8V29.8H98.514V30.8H99.514ZM99.514 50V51H100.514V50H99.514ZM95.994 50H94.994V51H95.994V50ZM95.994 30.8V29.8H92.314V30.8V31.8H95.994V30.8ZM92.314 30.8H93.314V27.6H92.314H91.314V30.8H92.314ZM92.314 27.6V28.6H103.194V27.6V26.6H92.314V27.6ZM103.194 27.6H102.194V30.8H103.194H104.194V27.6H103.194ZM103.194 30.8V29.8H99.514V30.8V31.8H103.194V30.8ZM99.514 30.8H98.514V50H99.514H100.514V30.8H99.514ZM99.514 50V49H95.994V50V51H99.514V50ZM95.994 50H96.994V30.8H95.994H94.994V50H95.994Z" fill="#2471E7" mask="url(#path-1-outside-1_73_3)"/>
<path d="M4.06292 30.0607L42.833 67.0495M16.6489 16.1976L45.2138 42.6118M30.4304 3.24373L51.181 20.9019" stroke="#2471E7" stroke-width="5" stroke-linejoin="round"/>
</svg>
